<svg width="195" height="36" viewBox="0 0 195 36" fill="none" xmlns="http://www.w3.org/2000/svg">
<path d="M10.6797 21.0781H7.67969V35H0.789062V0.875H7.67969V14.5156H10L15.9297 0.875H24.3203L15.9766 16.7656L25.2578 35H17.0547L10.6797 21.0781ZM26.0781 21.5C26.0781 17.6562 26.9844 14.6406 28.7969 12.4531C30.6094 10.2656 33.1172 9.17188 36.3203 9.17188C39.5547 9.17188 42.0781 10.2656 43.8906 12.4531C45.7031 14.6406 46.6094 17.6719 46.6094 21.5469V23.1641C46.6094 27.0234 45.7109 30.0391 43.9141 32.2109C42.1172 34.3828 39.6016 35.4688 36.3672 35.4688C33.1172 35.4688 30.5859 34.3828 28.7734 32.2109C26.9766 30.0234 26.0781 26.9922 26.0781 23.1172V21.5ZM32.7344 23.1641C32.7344 27.6953 33.9453 29.9609 36.3672 29.9609C38.6016 29.9609 39.8047 28.0703 39.9766 24.2891L40 21.5C40 19.1875 39.6797 17.4766 39.0391 16.3672C38.3984 15.2422 37.4922 14.6797 36.3203 14.6797C35.1953 14.6797 34.3125 15.2422 33.6719 16.3672C33.0469 17.4766 32.7344 19.1875 32.7344 21.5V23.1641ZM69.8594 35H63.2266V25.2734H57.3906V35H50.7344V9.64062H57.3906V19.7891H63.2266V9.64062H69.8594V35ZM92.9688 15.1016H86.4531V35H79.8203V15.1016H73.3516V9.64062H92.9688V15.1016ZM108.18 35C107.992 34.6094 107.805 33.9531 107.617 33.0312C106.43 34.6562 104.82 35.4688 102.789 35.4688C100.664 35.4688 98.8984 34.7656 97.4922 33.3594C96.1016 31.9531 95.4062 30.1328 95.4062 27.8984C95.4062 25.2422 96.25 23.1875 97.9375 21.7344C99.6406 20.2812 102.086 19.5391 105.273 19.5078H107.289V17.4688C107.289 16.3281 107.094 15.5234 106.703 15.0547C106.312 14.5859 105.742 14.3516 104.992 14.3516C103.336 14.3516 102.508 15.3203 102.508 17.2578H95.875C95.875 14.9141 96.75 12.9844 98.5 11.4688C100.266 9.9375 102.492 9.17188 105.18 9.17188C107.961 9.17188 110.109 9.89844 111.625 11.3516C113.156 12.7891 113.922 14.8516 113.922 17.5391V29.4688C113.953 31.6562 114.266 33.3672 114.859 34.6016V35H108.18ZM104.266 30.2656C105 30.2656 105.625 30.1172 106.141 29.8203C106.656 29.5234 107.039 29.1719 107.289 28.7656V23.4922H105.695C104.57 23.4922 103.68 23.8516 103.023 24.5703C102.383 25.2891 102.062 26.25 102.062 27.4531C102.062 29.3281 102.797 30.2656 104.266 30.2656ZM127.539 25.6953H125.805V35H119.195V9.64062H125.805V19.1562H127.445L131.289 9.64062H139.609L132.93 21.3359L140.125 35H131.336L127.539 25.6953ZM161.172 15.1016H154.656V35H148.023V15.1016H141.555V9.64062H161.172V15.1016ZM171.766 17.0234H175.164C178.148 17.0234 180.492 17.8438 182.195 19.4844C183.914 21.125 184.773 23.3203 184.773 26.0703C184.773 28.7578 183.906 30.9219 182.172 32.5625C180.453 34.1875 178.109 35 175.141 35H165.133V9.64062H171.766V17.0234ZM194.289 35H187.656V9.64062H194.289V35ZM171.766 22.5312V29.5391H175.234C176.156 29.5391 176.875 29.2344 177.391 28.625C177.906 28.0156 178.164 27.1719 178.164 26.0938C178.164 23.7188 177.125 22.5312 175.047 22.5312H171.766Z" fill="white"/>
</svg>
